<?xml version="1.0" encoding="utf-8"?><svg xmlns="http://www.w3.org/2000/svg" viewBox="0 0 27.78 24"><title>Decred</title><g id="bbcce27a-c418-4a67-b6db-15f15de9228b" data-name="Calque 2"><g id="eb28252f-62d3-4a98-add3-958135c7279e" data-name="Line"><g id="bbe924d0-a85d-4eed-8448-a15aa121c53d" data-name="Decred"><polygon points="3.59 1.01 10.74 8.13 3.63 1.01 3.59 1.01" style="fill:none;stroke:#d8d8d8;stroke-miterlimit:10;stroke-width:2.00000005052425px"/><polyline points="9.6 8.13 10.09 8.13 10.74 8.13 9.64 7.02" style="fill:none;stroke:#d8d8d8;stroke-miterlimit:10;stroke-width:2.00000005052425px"/><path d="M9.6,8.13H8.75A7.87,7.87,0,0,0,3.27,10.3a7.19,7.19,0,0,0,0,10.49A7.88,7.88,0,0,0,8.75,23H9l4.57,0,0,0H9.09" style="fill:none;stroke:#d8d8d8;stroke-miterlimit:10;stroke-width:2.00000005052425px"/><polygon points="24.19 22.99 17.04 15.88 24.15 22.99 24.19 22.99" style="fill:none;stroke:#d8d8d8;stroke-miterlimit:10;stroke-width:2.00000005052425px"/><polyline points="18.18 15.88 17.69 15.88 17.04 15.88 18.14 16.98" style="fill:none;stroke:#d8d8d8;stroke-miterlimit:10;stroke-width:2.00000005052425px"/><path d="M18.18,15.88H19a7.9,7.9,0,0,0,5.48-2.18,7.19,7.19,0,0,0,0-10.49A7.89,7.89,0,0,0,19,1h-.3L14.16,1l0,0h4.49" style="fill:none;stroke:#d8d8d8;stroke-miterlimit:10;stroke-width:2.00000005052425px"/></g></g></g></svg>