<?xml version="1.0" encoding="utf-8"?><svg xmlns="http://www.w3.org/2000/svg" viewBox="0 0 23.84 27"><title>erc20</title><g id="e853da93-f4cc-4889-99bc-1a94a03b995f" data-name="Calque 2"><g id="e2a5f692-4d85-467e-a5e8-764d1910a5ee" data-name="Line"><g id="a4cb5230-ecb3-44ee-9d63-63420cd35b6a" data-name="Stealthcoin"><path d="M22.52,13.83H12a1.32,1.32,0,0,0-1.32,1.32V25.68A1.32,1.32,0,0,0,12,27H22.52a1.32,1.32,0,0,0,1.32-1.32V15.15A1.32,1.32,0,0,0,22.52,13.83ZM21.2,21.31h-3v3.06h-2V21.31h-3V19.53h3V16.46h2v3.07h3Z" style="fill:#d8d8d8;fill-rule:evenodd"/><path d="M8,16.51l-.65.93L3.67,12.15l3.71,1.09,1.42-.42A4,4,0,0,1,12,11.2H14.3l.46-.66L7.38,0,0,10.54,7.38,21.07,8,20.14ZM11.7,9.8,7.38,11.06,3.06,9.8,7.38,3.63Z" style="fill:#d8d8d8"/></g></g></g></svg>