<?xml version="1.0" encoding="utf-8"?><svg xmlns="http://www.w3.org/2000/svg" viewBox="0 0 31.81 27.86"><title>QTUM</title><g id="b5e0eec8-67a6-47b9-85cc-2166aa70a748" data-name="Calque 2"><g id="e8bb2f83-3034-4f40-a291-2074bf59dfd8" data-name="Line"><g id="f66c86a2-c420-4c35-930a-ac0af3bd1345" data-name="QTUM"><polygon points="10.38 1 3.54 5.93 1.05 13.69 3.6 21.74 10.17 26.51 18.56 26.62 24.6 22.25 25.4 21.4 27.82 13.71 25.26 5.87 18.61 1 10.38 1" style="fill:none;stroke:#d8d8d8;stroke-miterlimit:10;stroke-width:2px"/><line x1="24.82" y1="21.68" x2="31.16" y2="27.1" style="fill:none;stroke:#d8d8d8;stroke-miterlimit:10;stroke-width:2px"/><polygon points="9.52 13.34 11.78 17.03 14.04 20.73 9.52 20.73 5 20.73 7.25 17.03 9.52 13.34" style="fill:none;stroke:#d8d8d8;stroke-miterlimit:10;stroke-width:2px"/><polygon points="19.73 13.18 22.03 16.95 24.33 20.72 19.73 20.72 15.13 20.72 17.43 16.95 19.73 13.18" style="fill:none;stroke:#d8d8d8;stroke-miterlimit:10;stroke-width:2px"/><line x1="10.57" y1="25.8" x2="14.04" y2="20.72" style="fill:none;stroke:#d8d8d8;stroke-miterlimit:10;stroke-width:2px"/><line x1="18.56" y1="26.66" x2="15.13" y2="20.72" style="fill:none;stroke:#d8d8d8;stroke-miterlimit:10;stroke-width:2px"/><polygon points="19.5 13.17 17.27 9.66 15.04 6.16 19.5 6.16 23.97 6.16 21.74 9.66 19.5 13.17" style="fill:none;stroke:#d8d8d8;stroke-miterlimit:10;stroke-width:2px"/><polygon points="9.41 13.31 7.14 9.74 4.87 6.16 9.41 6.16 13.96 6.16 11.69 9.74 9.41 13.31" style="fill:none;stroke:#d8d8d8;stroke-miterlimit:10;stroke-width:2px"/><line x1="18.46" y1="1.34" x2="15.04" y2="6.16" style="fill:none;stroke:#d8d8d8;stroke-miterlimit:10;stroke-width:2px"/><line x1="10.56" y1="0.53" x2="13.96" y2="6.16" style="fill:none;stroke:#d8d8d8;stroke-miterlimit:10;stroke-width:2px"/><line x1="1.05" y1="13.69" x2="27.83" y2="13.69" style="fill:none;stroke:#d8d8d8;stroke-miterlimit:10;stroke-width:2px"/></g></g></g></svg>