<?xml version="1.0" encoding="utf-8"?><svg xmlns="http://www.w3.org/2000/svg" viewBox="0 0 23.92 27.91"><title>XSN</title><g id="acf72671-c6cc-490b-94dc-72078b1e7e3d" data-name="Calque 2"><g id="afac1d25-35e3-4d40-8710-abd6dee51634" data-name="Line"><path id="f852924d-37fa-40fb-871d-1ee82e80bfb9" data-name="XSN" d="M21.93,14.38V8.29a1.14,1.14,0,0,0-.58-1L12.52,2.15a1.09,1.09,0,0,0-1.13,0L5.56,5.54A1.15,1.15,0,0,0,5.37,7.4a16.44,16.44,0,0,0,7.18,3A22,22,0,0,1,21.93,14.38Zm-9.79-2A18.15,18.15,0,0,1,4.05,8.9a3.15,3.15,0,0,1,.51-5.08L10.39.42a3.14,3.14,0,0,1,3.14,0l8.83,5.14a3.17,3.17,0,0,1,1.56,2.73v7.15a1.5,1.5,0,0,1-2.51,1.12C19.51,14.79,16.64,13.33,12.14,12.4ZM2,13.53v6.09a1.17,1.17,0,0,0,.57,1l8.84,5.14a1.14,1.14,0,0,0,1.13,0l5.83-3.39a1.16,1.16,0,0,0,.19-1.87,16.45,16.45,0,0,0-7.18-3A22,22,0,0,1,2,13.53Zm9.79,2A18.26,18.26,0,0,1,19.87,19a3.16,3.16,0,0,1-.51,5.09l-5.83,3.39a3.1,3.1,0,0,1-3.14,0L1.56,22.34A3.14,3.14,0,0,1,0,19.62V12.47a1.5,1.5,0,0,1,2.51-1.12C4.41,13.12,7.28,14.58,11.78,15.51Z" style="fill:#d8d8d8"/></g></g></svg>