<?xml version="1.0" encoding="utf-8"?><svg xmlns="http://www.w3.org/2000/svg" viewBox="0 0 32 27.095"><title>Fichier 487</title><g id="b0fac414-5702-4b5e-abca-4f1060f27cfd" data-name="Calque 2"><g id="fc8186a0-6e51-44fd-8bbd-429770e386ed" data-name="Back"><path d="M16.382,27.1h-.758a.671.671,0,0,0-.271-.022c-.031,0-.062-.012-.093-.014a14.2,14.2,0,0,1-1.982-.257,13.428,13.428,0,0,1-5.1-2.22c-.039-.027-.089-.045-.111-.1a.2.2,0,0,1,.032-.021q1.209-.616,2.416-1.236a.148.148,0,0,1,.16.02A10.954,10.954,0,0,0,15.4,24.6a11.04,11.04,0,0,0,8.609-3.409,10.9,10.9,0,0,0,3.031-8.607,2.933,2.933,0,0,0-.058-.476.2.2,0,0,0-.105.041Q24.6,13.3,22.327,14.461q-3.783,1.928-7.567,3.857L7.6,21.965.106,25.785a.233.233,0,0,1-.1.037c0-.018,0-.036,0-.054,0-.865,0-1.731,0-2.6a.157.157,0,0,1,.112-.158Q3.655,21.21,7.2,19.4l7.555-3.848L23.7,11Q27.849,8.88,32,6.767V9.528c-.051.028-.1.057-.154.084-.34.174-.682.346-1.022.521a2.337,2.337,0,0,0-.645.485,2.4,2.4,0,0,0-.673,1.836,15.277,15.277,0,0,1-.045,2.593,13.513,13.513,0,0,1-9.144,11.33,13.333,13.333,0,0,1-3.059.644c-.193.017-.388.014-.579.05A.784.784,0,0,0,16.382,27.1Z" style="fill:#d8d8d8"/><path d="M15.515,0h.975a.5.5,0,0,0,.244.021A14.589,14.589,0,0,1,18.8.292,13.483,13.483,0,0,1,23.844,2.5a.35.35,0,0,1,.105.088l-.083.045c-.77.393-1.541.784-2.308,1.181a.249.249,0,0,1-.27-.008,11.075,11.075,0,0,0-10.249-.16A11.031,11.031,0,0,0,6.057,8.68a11.06,11.06,0,0,0-1.066,5.962,1.246,1.246,0,0,0,.051.336L5.2,14.9l4.174-2.127,6.3-3.213,6.653-3.389,6.136-3.126L32,1.245V4.006c-.063.034-.126.069-.19.1L26.4,6.866l-7.17,3.654q-3.5,1.784-7,3.566-3.351,1.708-6.7,3.419-1.113.567-2.228,1.13L.109,20.259c-.031.016-.06.043-.106.026v-.146q0-1.2,0-2.395c0-.067,0-.135,0-.2.4-.2.8-.4,1.191-.6a2.4,2.4,0,0,0,1.107-1.181,2.613,2.613,0,0,0,.2-1.294,13.581,13.581,0,0,1,.71-5.351A13.551,13.551,0,0,1,11.028.951,13.238,13.238,0,0,1,13.981.156c.429-.064.859-.1,1.291-.135A.5.5,0,0,0,15.515,0Z" style="fill:#d8d8d8"/></g></g></svg>