<?xml version="1.0" encoding="utf-8"?><svg xmlns="http://www.w3.org/2000/svg" viewBox="0 0 24.88 22.18"><title>XRP</title><g id="a36e667e-04fd-43e8-8c23-e82572b032a6" data-name="Calque 2"><g id="a6453109-e80b-4a4f-9794-5f4a339919f0" data-name="Line"><g id="a3e6930a-2f39-435f-a627-0c7717b43f20" data-name="XRP"><path d="M12.31,10A7.36,7.36,0,0,1,7.07,7.57L0,0H2.83L8.5,6.18A5.43,5.43,0,0,0,12.32,8h0a6.32,6.32,0,0,0,4-1.82L22.12,0h2.76L17.79,7.55A8.31,8.31,0,0,1,12.42,10Z" style="fill:#d8d8d8"/><path d="M12.56,12.19a7.35,7.35,0,0,1,5.25,2.42l7.07,7.57H22.05L16.37,16a5.45,5.45,0,0,0-3.81-1.81H12.5a6.28,6.28,0,0,0-4,1.82L2.76,22.18H0l7.08-7.54a8.24,8.24,0,0,1,5.38-2.45Z" style="fill:#d8d8d8"/></g></g></g></svg>